<svg id="my-svg" width="100%" xmlns="http://www.w3.org/2000/svg" xmlns:xlink="http://www.w3.org/1999/xlink" class="flowchart" style="max-width: 943.934px; background-color: transparent;" viewBox="0 0 943.93359375 1049.114013671875" role="graphics-document document" aria-roledescription="flowchart-v2"><style>#my-svg{font-family:"trebuchet ms",verdana,arial,sans-serif;font-size:16px;fill:#000000;}@keyframes edge-animation-frame{from{stroke-dashoffset:0;}}@keyframes dash{to{stroke-dashoffset:0;}}#my-svg .edge-animation-slow{stroke-dasharray:9,5!important;stroke-dashoffset:900;animation:dash 50s linear infinite;stroke-linecap:round;}#my-svg .edge-animation-fast{stroke-dasharray:9,5!important;stroke-dashoffset:900;animation:dash 20s linear infinite;stroke-linecap:round;}#my-svg .error-icon{fill:#552222;}#my-svg .error-text{fill:#552222;stroke:#552222;}#my-svg .edge-thickness-normal{stroke-width:1px;}#my-svg .edge-thickness-thick{stroke-width:3.5px;}#my-svg .edge-pattern-solid{stroke-dasharray:0;}#my-svg .edge-thickness-invisible{stroke-width:0;fill:none;}#my-svg .edge-pattern-dashed{stroke-dasharray:3;}#my-svg .edge-pattern-dotted{stroke-dasharray:2;}#my-svg .marker{fill:#666;stroke:#666;}#my-svg .marker.cross{stroke:#666;}#my-svg svg{font-family:"trebuchet ms",verdana,arial,sans-serif;font-size:16px;}#my-svg p{margin:0;}#my-svg .label{font-family:"trebuchet ms",verdana,arial,sans-serif;color:#000000;}#my-svg .cluster-label text{fill:#333;}#my-svg .cluster-label span{color:#333;}#my-svg .cluster-label span p{background-color:transparent;}#my-svg .label text,#my-svg span{fill:#000000;color:#000000;}#my-svg .node rect,#my-svg .node circle,#my-svg .node ellipse,#my-svg .node polygon,#my-svg .node path{fill:#eee;stroke:#999;stroke-width:1px;}#my-svg .rough-node .label text,#my-svg .node .label text,#my-svg .image-shape .label,#my-svg .icon-shape .label{text-anchor:middle;}#my-svg .node .katex path{fill:#000;stroke:#000;stroke-width:1px;}#my-svg .rough-node .label,#my-svg .node .label,#my-svg .image-shape .label,#my-svg .icon-shape .label{text-align:center;}#my-svg .node.clickable{cursor:pointer;}#my-svg .root .anchor path{fill:#666!important;stroke-width:0;stroke:#666;}#my-svg .arrowheadPath{fill:#333333;}#my-svg .edgePath .path{stroke:#666;stroke-width:2.0px;}#my-svg .flowchart-link{stroke:#666;fill:none;}#my-svg .edgeLabel{background-color:white;text-align:center;}#my-svg .edgeLabel p{background-color:white;}#my-svg .edgeLabel rect{opacity:0.5;background-color:white;fill:white;}#my-svg .labelBkg{background-color:rgba(255, 255, 255, 0.5);}#my-svg .cluster rect{fill:hsl(0, 0%, 98.9215686275%);stroke:#707070;stroke-width:1px;}#my-svg .cluster text{fill:#333;}#my-svg .cluster span{color:#333;}#my-svg div.mermaidTooltip{position:absolute;text-align:center;max-width:200px;padding:2px;font-family:"trebuchet ms",verdana,arial,sans-serif;font-size:12px;background:hsl(-160, 0%, 93.3333333333%);border:1px solid #707070;border-radius:2px;pointer-events:none;z-index:100;}#my-svg .flowchartTitleText{text-anchor:middle;font-size:18px;fill:#000000;}#my-svg rect.text{fill:none;stroke-width:0;}#my-svg .icon-shape,#my-svg .image-shape{background-color:white;text-align:center;}#my-svg .icon-shape p,#my-svg .image-shape p{background-color:white;padding:2px;}#my-svg .icon-shape rect,#my-svg .image-shape rect{opacity:0.5;background-color:white;fill:white;}#my-svg .label-icon{display:inline-block;height:1em;overflow:visible;vertical-align:-0.125em;}#my-svg .node .label-icon path{fill:currentColor;stroke:revert;stroke-width:revert;}#my-svg :root{--mermaid-font-family:"trebuchet ms",verdana,arial,sans-serif;}</style><g><marker id="my-svg_flowchart-v2-pointEnd" class="marker flowchart-v2" viewBox="0 0 10 10" refX="5" refY="5" markerUnits="userSpaceOnUse" markerWidth="8" markerHeight="8" orient="auto"><path d="M 0 0 L 10 5 L 0 10 z" class="arrowMarkerPath" style="stroke-width: 1; stroke-dasharray: 1, 0;"/></marker><marker id="my-svg_flowchart-v2-pointStart" class="marker flowchart-v2" viewBox="0 0 10 10" refX="4.5" refY="5" markerUnits="userSpaceOnUse" markerWidth="8" markerHeight="8" orient="auto"><path d="M 0 5 L 10 10 L 10 0 z" class="arrowMarkerPath" style="stroke-width: 1; stroke-dasharray: 1, 0;"/></marker><marker id="my-svg_flowchart-v2-circleEnd" class="marker flowchart-v2" viewBox="0 0 10 10" refX="11" refY="5" markerUnits="userSpaceOnUse" markerWidth="11" markerHeight="11" orient="auto"><circle cx="5" cy="5" r="5" class="arrowMarkerPath" style="stroke-width: 1; stroke-dasharray: 1, 0;"/></marker><marker id="my-svg_flowchart-v2-circleStart" class="marker flowchart-v2" viewBox="0 0 10 10" refX="-1" refY="5" markerUnits="userSpaceOnUse" markerWidth="11" markerHeight="11" orient="auto"><circle cx="5" cy="5" r="5" class="arrowMarkerPath" style="stroke-width: 1; stroke-dasharray: 1, 0;"/></marker><marker id="my-svg_flowchart-v2-crossEnd" class="marker cross flowchart-v2" viewBox="0 0 11 11" refX="12" refY="5.2" markerUnits="userSpaceOnUse" markerWidth="11" markerHeight="11" orient="auto"><path d="M 1,1 l 9,9 M 10,1 l -9,9" class="arrowMarkerPath" style="stroke-width: 2; stroke-dasharray: 1, 0;"/></marker><marker id="my-svg_flowchart-v2-crossStart" class="marker cross flowchart-v2" viewBox="0 0 11 11" refX="-1" refY="5.2" markerUnits="userSpaceOnUse" markerWidth="11" markerHeight="11" orient="auto"><path d="M 1,1 l 9,9 M 10,1 l -9,9" class="arrowMarkerPath" style="stroke-width: 2; stroke-dasharray: 1, 0;"/></marker><g class="root"><g class="clusters"><g class="cluster" id="pablo" data-look="classic"><rect style="fill:#fff3cd !important;stroke:#856404 !important;stroke-width:2px !important" x="8.1953125" y="715" width="245.046875" height="326.11402893066406"/><g class="cluster-label" transform="translate(30.71875, 715)"><foreignObject width="200" height="48"><div xmlns="http://www.w3.org/1999/xhtml" style="display: table; white-space: break-spaces; line-height: 1.5; max-width: 200px; text-align: center; width: 200px;"><span class="nodeLabel"><p>PABLO — Système de dématérialisation des BVE</p></span></div></foreignObject></g></g><g class="cluster" id="gun" data-look="classic"><rect style="fill:#f5f5f5 !important;stroke:#666 !important;stroke-width:2px !important" x="8" y="385" width="265.4375" height="208"/><g class="cluster-label" transform="translate(40.71875, 385)"><foreignObject width="200" height="48"><div xmlns="http://www.w3.org/1999/xhtml" style="display: table; white-space: break-spaces; line-height: 1.5; max-width: 200px; text-align: center; width: 200px;"><span class="nodeLabel"><p>GUN — Guichet Unique Numérique (DGDDI)</p></span></div></foreignObject></g></g><g class="cluster" id="platform" data-look="classic"><rect style="fill:#f0f4ff !important;stroke:#000091 !important;stroke-width:2px !important" x="293.4375" y="8" width="642.49609375" height="1033.114028930664"/><g class="cluster-label" transform="translate(552.310546875, 8)"><foreignObject width="124.75" height="24"><div xmlns="http://www.w3.org/1999/xhtml" style="display: table-cell; white-space: nowrap; line-height: 1.5; max-width: 200px; text-align: center;"><span class="nodeLabel"><p>Notre Plateforme</p></span></div></foreignObject></g></g></g><g class="edgePaths"><path d="M773.496,106.347L782.431,111.289C791.366,116.231,809.236,126.116,818.171,141.724C827.105,157.333,827.105,178.667,827.105,208C827.105,237.333,827.105,274.667,827.105,305.5C827.105,336.333,827.105,360.667,827.105,381.5C827.105,402.333,827.105,419.667,827.105,437C827.105,454.333,827.105,471.667,827.105,489C827.105,506.333,827.105,523.667,827.105,541C827.105,558.333,827.105,575.667,827.105,594.5C827.105,613.333,827.105,633.667,827.105,654C827.105,674.333,827.105,694.667,827.105,715.5C827.105,736.333,827.105,757.667,827.105,779C827.105,800.333,827.105,821.667,826.46,841.678C825.814,861.689,824.523,880.378,823.877,889.722L823.232,899.067" id="L_API_VALID_0" class="edge-thickness-normal edge-pattern-solid edge-thickness-normal edge-pattern-solid flowchart-link" style=";" data-edge="true" data-et="edge" data-id="L_API_VALID_0" data-points="W3sieCI6NzczLjQ5NjA5Mzc1LCJ5IjoxMDYuMzQ2NTIyNjE5ODUxNDR9LHsieCI6ODI3LjEwNTQ2ODc1LCJ5IjoxMzZ9LHsieCI6ODI3LjEwNTQ2ODc1LCJ5IjoyMDB9LHsieCI6ODI3LjEwNTQ2ODc1LCJ5IjozMTJ9LHsieCI6ODI3LjEwNTQ2ODc1LCJ5IjozODV9LHsieCI6ODI3LjEwNTQ2ODc1LCJ5Ijo0Mzd9LHsieCI6ODI3LjEwNTQ2ODc1LCJ5Ijo0ODl9LHsieCI6ODI3LjEwNTQ2ODc1LCJ5Ijo1NDF9LHsieCI6ODI3LjEwNTQ2ODc1LCJ5Ijo1OTN9LHsieCI6ODI3LjEwNTQ2ODc1LCJ5Ijo2NTR9LHsieCI6ODI3LjEwNTQ2ODc1LCJ5Ijo3MTV9LHsieCI6ODI3LjEwNTQ2ODc1LCJ5Ijo3Nzl9LHsieCI6ODI3LjEwNTQ2ODc1LCJ5Ijo4NDN9LHsieCI6ODIyLjk1NjE4OTcyMTQ5NywieSI6OTAzLjA1NzAxNDQ2NTMzMn1d" marker-end="url(#my-svg_flowchart-v2-pointEnd)"/><path d="M707.875,111L707.498,115.167C707.121,119.333,706.367,127.667,705.99,135.333C705.613,143,705.613,150,705.613,153.5L705.613,157" id="L_API_WORKERS_0" class="edge-thickness-normal edge-pattern-solid edge-thickness-normal edge-pattern-solid flowchart-link" style=";" data-edge="true" data-et="edge" data-id="L_API_WORKERS_0" data-points="W3sieCI6NzA3Ljg3NDYzMzc4OTA2MjUsInkiOjExMX0seyJ4Ijo3MDUuNjEzMjgxMjUsInkiOjEzNn0seyJ4Ijo3MDUuNjEzMjgxMjUsInkiOjE2MX1d" marker-end="url(#my-svg_flowchart-v2-pointEnd)"/><path d="M456.841,818L460.419,822.167C463.997,826.333,471.153,834.667,517.637,851.263C564.122,867.858,649.935,892.717,692.841,905.146L735.748,917.575" id="L_WH_VALID_0" class="edge-thickness-normal edge-pattern-solid edge-thickness-normal edge-pattern-solid flowchart-link" style=";" data-edge="true" data-et="edge" data-id="L_WH_VALID_0" data-points="W3sieCI6NDU2Ljg0MTAwMzQxNzk2ODc1LCJ5Ijo4MTh9LHsieCI6NDc4LjMwODU5Mzc1LCJ5Ijo4NDN9LHsieCI6NzM5LjU4OTg0Mzc1LCJ5Ijo5MTguNjg3OTc3ODc5MzM2Nn1d" marker-end="url(#my-svg_flowchart-v2-pointEnd)"/><path d="M723.284,239L728.796,251.167C734.309,263.333,745.334,287.667,750.847,312C756.359,336.333,756.359,360.667,756.359,381.5C756.359,402.333,756.359,419.667,756.359,437C756.359,454.333,756.359,471.667,756.359,489C756.359,506.333,756.359,523.667,756.359,541C756.359,558.333,756.359,575.667,756.359,594.5C756.359,613.333,756.359,633.667,756.359,654C756.359,674.333,756.359,694.667,756.359,715.5C756.359,736.333,756.359,757.667,756.359,779C756.359,800.333,756.359,821.667,733.314,843.573C710.269,865.48,664.178,887.961,641.133,899.201L618.087,910.441" id="L_WORKERS_DB_0" class="edge-thickness-normal edge-pattern-solid edge-thickness-normal edge-pattern-solid flowchart-link" style=";" data-edge="true" data-et="edge" data-id="L_WORKERS_DB_0" data-points="W3sieCI6NzIzLjI4Mzc5NjAzNzk0NjQsInkiOjIzOX0seyJ4Ijo3NTYuMzU5Mzc1LCJ5IjozMTJ9LHsieCI6NzU2LjM1OTM3NSwieSI6Mzg1fSx7IngiOjc1Ni4zNTkzNzUsInkiOjQzN30seyJ4Ijo3NTYuMzU5Mzc1LCJ5Ijo0ODl9LHsieCI6NzU2LjM1OTM3NSwieSI6NTQxfSx7IngiOjc1Ni4zNTkzNzUsInkiOjU5M30seyJ4Ijo3NTYuMzU5Mzc1LCJ5Ijo2NTR9LHsieCI6NzU2LjM1OTM3NSwieSI6NzE1fSx7IngiOjc1Ni4zNTkzNzUsInkiOjc3OX0seyJ4Ijo3NTYuMzU5Mzc1LCJ5Ijo4NDN9LHsieCI6NjE0LjQ5MjE4NzUsInkiOjkxMi4xOTQzNTAxMTgzMjQ2fV0=" marker-end="url(#my-svg_flowchart-v2-pointEnd)"/><path d="M649.309,97.13L633.301,103.608C617.294,110.087,585.28,123.043,569.273,140.188C553.266,157.333,553.266,178.667,553.266,208C553.266,237.333,553.266,274.667,553.266,305.5C553.266,336.333,553.266,360.667,553.266,381.5C553.266,402.333,553.266,419.667,553.266,437C553.266,454.333,553.266,471.667,553.266,489C553.266,506.333,553.266,523.667,553.266,541C553.266,558.333,553.266,575.667,553.266,594.5C553.266,613.333,553.266,633.667,553.266,654C553.266,674.333,553.266,694.667,553.266,715.5C553.266,736.333,553.266,757.667,553.266,779C553.266,800.333,553.266,821.667,553.266,835.833C553.266,850,553.266,857,553.266,860.5L553.266,864" id="L_API_DB_0" class="edge-thickness-normal edge-pattern-solid edge-thickness-normal edge-pattern-solid flowchart-link" style=";" data-edge="true" data-et="edge" data-id="L_API_DB_0" data-points="W3sieCI6NjQ5LjMwODU5Mzc1LCJ5Ijo5Ny4xMzAxNTMzOTc3MjI1fSx7IngiOjU1My4yNjU2MjUsInkiOjEzNn0seyJ4Ijo1NTMuMjY1NjI1LCJ5IjoyMDB9LHsieCI6NTUzLjI2NTYyNSwieSI6MzEyfSx7IngiOjU1My4yNjU2MjUsInkiOjM4NX0seyJ4Ijo1NTMuMjY1NjI1LCJ5Ijo0Mzd9LHsieCI6NTUzLjI2NTYyNSwieSI6NDg5fSx7IngiOjU1My4yNjU2MjUsInkiOjU0MX0seyJ4Ijo1NTMuMjY1NjI1LCJ5Ijo1OTN9LHsieCI6NTUzLjI2NTYyNSwieSI6NjU0fSx7IngiOjU1My4yNjU2MjUsInkiOjcxNX0seyJ4Ijo1NTMuMjY1NjI1LCJ5Ijo3Nzl9LHsieCI6NTUzLjI2NTYyNSwieSI6ODQzfSx7IngiOjU1My4yNjU2MjUsInkiOjg2OH1d" marker-end="url(#my-svg_flowchart-v2-pointEnd)"/><path d="M389.862,818L386.284,822.167C382.706,826.333,375.55,834.667,391.992,849.56C408.434,864.454,448.474,885.908,468.493,896.635L488.513,907.362" id="L_WH_DB_0" class="edge-thickness-normal edge-pattern-solid edge-thickness-normal edge-pattern-solid flowchart-link" style=";" data-edge="true" data-et="edge" data-id="L_WH_DB_0" data-points="W3sieCI6Mzg5Ljg2MjEyMTU4MjAzMTI1LCJ5Ijo4MTh9LHsieCI6MzY4LjM5NDUzMTI1LCJ5Ijo4NDN9LHsieCI6NDkyLjAzOTA2MjUsInkiOjkwOS4yNTA4MDE0MjE0MTE4fV0=" marker-end="url(#my-svg_flowchart-v2-pointEnd)"/><path d="M689.665,239L684.689,251.167C679.714,263.333,669.763,287.667,664.788,312C659.813,336.333,659.813,360.667,587.014,380.126C514.215,399.585,368.617,414.17,295.818,421.463L223.019,428.756" id="L_WORKERS_SSO_0" class="edge-thickness-normal edge-pattern-solid edge-thickness-normal edge-pattern-solid flowchart-link" style=";" data-edge="true" data-et="edge" data-id="L_WORKERS_SSO_0" data-points="W3sieCI6Njg5LjY2NDc5NDkyMTg3NSwieSI6MjM5fSx7IngiOjY1OS44MTI1LCJ5IjozMTJ9LHsieCI6NjU5LjgxMjUsInkiOjM4NX0seyJ4IjoyMTkuMDM5MDYyNSwieSI6NDI5LjE1NDI5NTM0NjQ1NzE2fV0=" marker-end="url(#my-svg_flowchart-v2-pointEnd)"/><path d="M140.719,464L140.719,468.167C140.719,472.333,140.719,480.667,140.719,488.333C140.719,496,140.719,503,140.719,506.5L140.719,510" id="L_SSO_RELAY_0" class="edge-thickness-normal edge-pattern-solid edge-thickness-normal edge-pattern-solid flowchart-link" style=";" data-edge="true" data-et="edge" data-id="L_SSO_RELAY_0" data-points="W3sieCI6MTQwLjcxODc1LCJ5Ijo0NjR9LHsieCI6MTQwLjcxODc1LCJ5Ijo0ODl9LHsieCI6MTQwLjcxODc1LCJ5Ijo1MTR9XQ==" marker-end="url(#my-svg_flowchart-v2-pointEnd)"/><path d="M169.982,568L174.498,572.167C179.014,576.333,188.046,584.667,230.274,599C272.503,613.333,347.927,633.667,385.639,654C423.352,674.333,423.352,694.667,423.352,708.333C423.352,722,423.352,729,423.352,732.5L423.352,736" id="L_RELAY_WH_0" class="edge-thickness-normal edge-pattern-solid edge-thickness-normal edge-pattern-solid flowchart-link" style=";" data-edge="true" data-et="edge" data-id="L_RELAY_WH_0" data-points="W3sieCI6MTY5Ljk4MjI3MTYzNDYxNTQsInkiOjU2OH0seyJ4IjoxOTcuMDc4MTI1LCJ5Ijo1OTN9LHsieCI6NDIzLjM1MTU2MjUsInkiOjY1NH0seyJ4Ijo0MjMuMzUxNTYyNSwieSI6NzE1fSx7IngiOjQyMy4zNTE1NjI1LCJ5Ijo3NDB9XQ==" marker-end="url(#my-svg_flowchart-v2-pointEnd)"/><path d="M135.526,568L134.725,572.167C133.924,576.333,132.321,584.667,131.52,599C130.719,613.333,130.719,633.667,130.719,654C130.719,674.333,130.719,694.667,130.719,708.333C130.719,722,130.719,729,130.719,732.5L130.719,736" id="L_RELAY_CTRL_0" class="edge-thickness-normal edge-pattern-solid edge-thickness-normal edge-pattern-solid flowchart-link" style=";" data-edge="true" data-et="edge" data-id="L_RELAY_CTRL_0" data-points="W3sieCI6MTM1LjUyNjQ0MjMwNzY5MjMyLCJ5Ijo1Njh9LHsieCI6MTMwLjcxODc1LCJ5Ijo1OTN9LHsieCI6MTMwLjcxODc1LCJ5Ijo2NTR9LHsieCI6MTMwLjcxODc1LCJ5Ijo3MTV9LHsieCI6MTMwLjcxODc1LCJ5Ijo3NDB9XQ==" marker-end="url(#my-svg_flowchart-v2-pointEnd)"/><path d="M130.719,818L130.719,822.167C130.719,826.333,130.719,834.667,130.719,850.176C130.719,865.686,130.719,888.371,130.719,899.714L130.719,911.057" id="L_CTRL_BVE_SYS_0" class="edge-thickness-normal edge-pattern-solid edge-thickness-normal edge-pattern-solid flowchart-link" style=";" data-edge="true" data-et="edge" data-id="L_CTRL_BVE_SYS_0" data-points="W3sieCI6MTMwLjcxODc1LCJ5Ijo4MTh9LHsieCI6MTMwLjcxODc1LCJ5Ijo4NDN9LHsieCI6MTMwLjcxODc1LCJ5Ijo5MTUuMDU3MDE0NDY1MzMyfV0=" marker-end="url(#my-svg_flowchart-v2-pointEnd)"/></g><g class="edgeLabels"><g class="edgeLabel"><g class="label" data-id="L_API_VALID_0" transform="translate(0, 0)"><foreignObject width="0" height="0"><div xmlns="http://www.w3.org/1999/xhtml" class="labelBkg" style="display: table-cell; white-space: nowrap; line-height: 1.5; max-width: 200px; text-align: center;"><span class="edgeLabel"></span></div></foreignObject></g></g><g class="edgeLabel"><g class="label" data-id="L_API_WORKERS_0" transform="translate(0, 0)"><foreignObject width="0" height="0"><div xmlns="http://www.w3.org/1999/xhtml" class="labelBkg" style="display: table-cell; white-space: nowrap; line-height: 1.5; max-width: 200px; text-align: center;"><span class="edgeLabel"></span></div></foreignObject></g></g><g class="edgeLabel"><g class="label" data-id="L_WH_VALID_0" transform="translate(0, 0)"><foreignObject width="0" height="0"><div xmlns="http://www.w3.org/1999/xhtml" class="labelBkg" style="display: table-cell; white-space: nowrap; line-height: 1.5; max-width: 200px; text-align: center;"><span class="edgeLabel"></span></div></foreignObject></g></g><g class="edgeLabel"><g class="label" data-id="L_WORKERS_DB_0" transform="translate(0, 0)"><foreignObject width="0" height="0"><div xmlns="http://www.w3.org/1999/xhtml" class="labelBkg" style="display: table-cell; white-space: nowrap; line-height: 1.5; max-width: 200px; text-align: center;"><span class="edgeLabel"></span></div></foreignObject></g></g><g class="edgeLabel"><g class="label" data-id="L_API_DB_0" transform="translate(0, 0)"><foreignObject width="0" height="0"><div xmlns="http://www.w3.org/1999/xhtml" class="labelBkg" style="display: table-cell; white-space: nowrap; line-height: 1.5; max-width: 200px; text-align: center;"><span class="edgeLabel"></span></div></foreignObject></g></g><g class="edgeLabel"><g class="label" data-id="L_WH_DB_0" transform="translate(0, 0)"><foreignObject width="0" height="0"><div xmlns="http://www.w3.org/1999/xhtml" class="labelBkg" style="display: table-cell; white-space: nowrap; line-height: 1.5; max-width: 200px; text-align: center;"><span class="edgeLabel"></span></div></foreignObject></g></g><g class="edgeLabel" transform="translate(659.8125, 312)"><g class="label" data-id="L_WORKERS_SSO_0" transform="translate(-71.6015625, -48)"><foreignObject width="143.203125" height="96"><div xmlns="http://www.w3.org/1999/xhtml" class="labelBkg" style="display: table-cell; white-space: nowrap; line-height: 1.5; max-width: 200px; text-align: center;"><span class="edgeLabel"><p>HTTPS POST<br />Messages ALLER<br />(A_E_C01, A_E_P01,<br />A_E_S01, A_E_U01)</p></span></div></foreignObject></g></g><g class="edgeLabel"><g class="label" data-id="L_SSO_RELAY_0" transform="translate(0, 0)"><foreignObject width="0" height="0"><div xmlns="http://www.w3.org/1999/xhtml" class="labelBkg" style="display: table-cell; white-space: nowrap; line-height: 1.5; max-width: 200px; text-align: center;"><span class="edgeLabel"></span></div></foreignObject></g></g><g class="edgeLabel" transform="translate(423.3515625, 654)"><g class="label" data-id="L_RELAY_WH_0" transform="translate(-82.1171875, -36)"><foreignObject width="164.234375" height="72"><div xmlns="http://www.w3.org/1999/xhtml" class="labelBkg" style="display: table-cell; white-space: nowrap; line-height: 1.5; max-width: 200px; text-align: center;"><span class="edgeLabel"><p>Messages RETOUR<br />(R_AR_C02, R_EC_C03,<br />R_E_A01, R_E_IS...)</p></span></div></foreignObject></g></g><g class="edgeLabel"><g class="label" data-id="L_RELAY_CTRL_0" transform="translate(0, 0)"><foreignObject width="0" height="0"><div xmlns="http://www.w3.org/1999/xhtml" class="labelBkg" style="display: table-cell; white-space: nowrap; line-height: 1.5; max-width: 200px; text-align: center;"><span class="edgeLabel"></span></div></foreignObject></g></g><g class="edgeLabel"><g class="label" data-id="L_CTRL_BVE_SYS_0" transform="translate(0, 0)"><foreignObject width="0" height="0"><div xmlns="http://www.w3.org/1999/xhtml" class="labelBkg" style="display: table-cell; white-space: nowrap; line-height: 1.5; max-width: 200px; text-align: center;"><span class="edgeLabel"></span></div></foreignObject></g></g></g><g class="nodes"><g class="node default" id="flowchart-API-0" transform="translate(711.40234375, 72)"><rect class="basic label-container" style="" x="-62.09375" y="-39" width="124.1875" height="78"/><g class="label" style="" transform="translate(-32.09375, -24)"><rect/><foreignObject width="64.1875" height="48"><div xmlns="http://www.w3.org/1999/xhtml" style="display: table-cell; white-space: nowrap; line-height: 1.5; max-width: 200px; text-align: center;"><span class="nodeLabel"><p>API REST<br />(FastAPI)</p></span></div></foreignObject></g></g><g class="node default" id="flowchart-WH-1" transform="translate(423.3515625, 779)"><rect class="basic label-container" style="" x="-94.9140625" y="-39" width="189.828125" height="78"/><g class="label" style="" transform="translate(-64.9140625, -24)"><rect/><foreignObject width="129.828125" height="48"><div xmlns="http://www.w3.org/1999/xhtml" style="display: table-cell; white-space: nowrap; line-height: 1.5; max-width: 200px; text-align: center;"><span class="nodeLabel"><p>Serveur Webhook<br />(réception PABLO)</p></span></div></foreignObject></g></g><g class="node default" id="flowchart-WORKERS-2" transform="translate(705.61328125, 200)"><rect class="basic label-container" style="" x="-86.4921875" y="-39" width="172.984375" height="78"/><g class="label" style="" transform="translate(-56.4921875, -24)"><rect/><foreignObject width="112.984375" height="48"><div xmlns="http://www.w3.org/1999/xhtml" style="display: table-cell; white-space: nowrap; line-height: 1.5; max-width: 200px; text-align: center;"><span class="nodeLabel"><p>Workers<br />(Celery + Redis)</p></span></div></foreignObject></g></g><g class="node default" id="flowchart-VALID-3" transform="translate(820.26171875, 942.057014465332)"><rect class="basic label-container" style="" x="-80.671875" y="-39" width="161.34375" height="78"/><g class="label" style="" transform="translate(-50.671875, -24)"><rect/><foreignObject width="101.34375" height="48"><div xmlns="http://www.w3.org/1999/xhtml" style="display: table-cell; white-space: nowrap; line-height: 1.5; max-width: 200px; text-align: center;"><span class="nodeLabel"><p>Validation JSD<br />(Pydantic)</p></span></div></foreignObject></g></g><g class="node default" id="flowchart-DB-4" transform="translate(553.265625, 942.057014465332)"><path d="M0,12.371345583128118 a61.2265625,12.371345583128118 0,0,0 122.453125,0 a61.2265625,12.371345583128118 0,0,0 -122.453125,0 l0,123.37134558312812 a61.2265625,12.371345583128118 0,0,0 122.453125,0 l0,-123.37134558312812" class="basic label-container" style="" transform="translate(-61.2265625, -74.05701837469218)"/><g class="label" style="" transform="translate(-53.7265625, -38)"><rect/><foreignObject width="107.453125" height="96"><div xmlns="http://www.w3.org/1999/xhtml" style="display: table-cell; white-space: nowrap; line-height: 1.5; max-width: 200px; text-align: center;"><span class="nodeLabel"><p>PostgreSQL<br />BVE · Vendeurs<br />Transactions<br />Audit trail</p></span></div></foreignObject></g></g><g class="node default" id="flowchart-SSO-17" transform="translate(140.71875, 437)"><rect class="basic label-container" style="" x="-78.3203125" y="-27" width="156.640625" height="54"/><g class="label" style="" transform="translate(-48.3203125, -12)"><rect/><foreignObject width="96.640625" height="24"><div xmlns="http://www.w3.org/1999/xhtml" style="display: table-cell; white-space: nowrap; line-height: 1.5; max-width: 200px; text-align: center;"><span class="nodeLabel"><p>SSO / OAuth2</p></span></div></foreignObject></g></g><g class="node default" id="flowchart-RELAY-18" transform="translate(140.71875, 541)"><rect class="basic label-container" style="" x="-97.71875" y="-27" width="195.4375" height="54"/><g class="label" style="" transform="translate(-67.71875, -12)"><rect/><foreignObject width="135.4375" height="24"><div xmlns="http://www.w3.org/1999/xhtml" style="display: table-cell; white-space: nowrap; line-height: 1.5; max-width: 200px; text-align: center;"><span class="nodeLabel"><p>Relais de messages</p></span></div></foreignObject></g></g><g class="node default" id="flowchart-CTRL-19" transform="translate(130.71875, 779)"><rect class="basic label-container" style="" x="-86.8828125" y="-39" width="173.765625" height="78"/><g class="label" style="" transform="translate(-56.8828125, -24)"><rect/><foreignObject width="113.765625" height="48"><div xmlns="http://www.w3.org/1999/xhtml" style="display: table-cell; white-space: nowrap; line-height: 1.5; max-width: 200px; text-align: center;"><span class="nodeLabel"><p>Contrôle formel<br />et contenu</p></span></div></foreignObject></g></g><g class="node default" id="flowchart-BVE_SYS-20" transform="translate(130.71875, 942.057014465332)"><rect class="basic label-container" style="" x="-87.5234375" y="-27" width="175.046875" height="54"/><g class="label" style="" transform="translate(-57.5234375, -12)"><rect/><foreignObject width="115.046875" height="24"><div xmlns="http://www.w3.org/1999/xhtml" style="display: table-cell; white-space: nowrap; line-height: 1.5; max-width: 200px; text-align: center;"><span class="nodeLabel"><p>Gestion des BVE</p></span></div></foreignObject></g></g></g></g></g></svg>